<svg width="18" height="18" viewBox="0 0 18 18" fill="none" xmlns="http://www.w3.org/2000/svg">
<path d="M9.16959 5.67577C7.60594 5.67577 6.32989 6.95182 6.32989 8.51547C6.32989 10.0791 7.60594 11.3552 9.16959 11.3552C10.7332 11.3552 12.0093 10.0791 12.0093 8.51547C12.0093 6.95182 10.7332 5.67577 9.16959 5.67577ZM17.6866 8.51547C17.6866 7.33954 17.6972 6.17426 17.6312 5.00046C17.5651 3.63707 17.2541 2.42705 16.2571 1.43007C15.258 0.430955 14.0501 0.122061 12.6867 0.0560216C11.5108 -0.0100179 10.3455 0.000633647 9.17172 0.000633647C7.99579 0.000633647 6.83051 -0.0100179 5.65671 0.0560216C4.29332 0.122061 3.0833 0.433086 2.08632 1.43007C1.08721 2.42918 0.778311 3.63707 0.712272 5.00046C0.646232 6.17639 0.656884 7.34167 0.656884 8.51547C0.656884 9.68926 0.646232 10.8567 0.712272 12.0305C0.778311 13.3939 1.08934 14.6039 2.08632 15.6009C3.08543 16.6 4.29332 16.9089 5.65671 16.9749C6.83264 17.0409 7.99792 17.0303 9.17172 17.0303C10.3476 17.0303 11.5129 17.0409 12.6867 16.9749C14.0501 16.9089 15.2601 16.5978 16.2571 15.6009C17.2562 14.6017 17.5651 13.3939 17.6312 12.0305C17.6993 10.8567 17.6866 9.69139 17.6866 8.51547ZM9.16959 12.8847C6.75169 12.8847 4.80033 10.9334 4.80033 8.51547C4.80033 6.09757 6.75169 4.14621 9.16959 4.14621C11.5875 4.14621 13.5388 6.09757 13.5388 8.51547C13.5388 10.9334 11.5875 12.8847 9.16959 12.8847ZM13.7178 4.98768C13.1533 4.98768 12.6974 4.53179 12.6974 3.96726C12.6974 3.40273 13.1533 2.94685 13.7178 2.94685C14.2823 2.94685 14.7382 3.40273 14.7382 3.96726C14.7384 4.10131 14.7121 4.23408 14.6609 4.35796C14.6097 4.48184 14.5345 4.59439 14.4397 4.68918C14.3449 4.78397 14.2324 4.85913 14.1085 4.91035C13.9846 4.96157 13.8518 4.98785 13.7178 4.98768Z" fill="white"/>
</svg>
