<svg width="20" height="20" viewBox="0 0 20 20" fill="none" xmlns="http://www.w3.org/2000/svg">
<path fill-rule="evenodd" clip-rule="evenodd" d="M0.146447 0.146447C0.341709 -0.0488155 0.658291 -0.0488155 0.853553 0.146447L19.8536 19.1464C20.0488 19.3417 20.0488 19.6583 19.8536 19.8536C19.6583 20.0488 19.3417 20.0488 19.1464 19.8536L0.146447 0.853553C-0.0488155 0.658291 -0.0488155 0.341709 0.146447 0.146447Z" fill="#4CA640"/>
<path fill-rule="evenodd" clip-rule="evenodd" d="M19.8536 0.146447C19.6583 -0.0488155 19.3417 -0.0488155 19.1464 0.146447L0.146446 19.1464C-0.0488148 19.3417 -0.0488148 19.6583 0.146446 19.8536C0.341709 20.0488 0.658291 20.0488 0.853554 19.8536L19.8536 0.853553C20.0488 0.658291 20.0488 0.341709 19.8536 0.146447Z" fill="#4CA640"/>
</svg>
