<svg width="18" height="18" viewBox="0 0 18 18" fill="none" xmlns="http://www.w3.org/2000/svg">
<g clip-path="url(#clip0)">
<path d="M17.6423 4.40215C17.5434 4.04861 17.3549 3.7266 17.0951 3.46729C16.8352 3.20798 16.5128 3.02017 16.159 2.92203C14.8311 2.56703 9.49289 2.56703 9.49289 2.56703C9.49289 2.56703 4.16477 2.55852 2.82302 2.92203C2.46984 3.0206 2.14805 3.20861 1.88877 3.46789C1.62948 3.72718 1.44147 4.04896 1.3429 4.40215C1.09073 5.76157 0.966536 7.14164 0.97194 8.52425C0.96948 9.9002 1.09366 11.2735 1.3429 12.6266C1.44179 12.98 1.62986 13.302 1.88905 13.5618C2.14825 13.8216 2.46986 14.0103 2.82302 14.11C4.15093 14.465 9.49289 14.465 9.49289 14.465C9.49289 14.465 14.8178 14.465 16.159 14.11C16.5128 14.0107 16.835 13.8222 17.0948 13.5624C17.3546 13.3026 17.5431 12.9804 17.6423 12.6266C17.8866 11.2743 18.0059 9.89899 17.9973 8.52425C18.0059 7.14046 17.8893 5.76305 17.6423 4.40215ZM7.78763 11.072V5.9653L12.2312 8.52425L7.78763 11.072Z" fill="white"/>
</g>
<defs>
<clipPath id="clip0">
<rect x="0.96875" width="17.0312" height="17.0312" fill="white"/>
</clipPath>
</defs>
</svg>
